<?xml version="1.0" standalone="no"?>
<!DOCTYPE svg PUBLIC "-//W3C//DTD SVG 20010904//EN"
 "http://www.w3.org/TR/2001/REC-SVG-20010904/DTD/svg10.dtd">
<svg version="1.0" xmlns="http://www.w3.org/2000/svg"
 width="500.000000pt" height="500.000000pt" viewBox="0 0 500.000000 500.000000"
 preserveAspectRatio="xMidYMid meet">
<metadata>
Created by potrace 1.11, written by Peter Selinger 2001-2013
</metadata>
<g transform="translate(0.000000,500.000000) scale(0.100000,-0.100000)"
fill="#000000" stroke="none">
<path d="M836 4528 c-5 -23 -87 -1294 -86 -1335 0 -23 1 -23 144 -23 141 0
144 0 149 23 3 12 43 264 89 559 l83 538 518 0 517 0 0 -1760 0 -1760 -355 0
-355 0 0 -130 0 -130 980 0 980 0 0 130 0 130 -390 0 -390 0 0 1760 0 1760
525 0 525 0 5 -22 c6 -28 145 -1068 145 -1085 0 -10 36 -13 145 -13 l145 0 0
27 c0 48 -49 1164 -56 1261 l-6 92 -1654 0 -1654 0 -4 -22z"/>
</g>
</svg>
